<?xml version="1.0" encoding="utf-8"?>
<!-- Generator: Adobe Illustrator 17.0.0, SVG Export Plug-In . SVG Version: 6.00 Build 0)  -->
<!DOCTYPE svg PUBLIC "-//W3C//DTD SVG 1.1//EN" "http://www.w3.org/Graphics/SVG/1.1/DTD/svg11.dtd">
<svg version="1.1" id="Layer_1" xmlns="http://www.w3.org/2000/svg" xmlns:xlink="http://www.w3.org/1999/xlink" x="0px" y="0px"
	 width="738.781px" height="736.325px" viewBox="0 0 738.781 736.325" enable-background="new 0 0 738.781 736.325"
	 xml:space="preserve">
<g>
	<g opacity="0.5">
		
			<radialGradient id="SVGID_1_" cx="2412.5703" cy="300.0435" r="133.8268" gradientTransform="matrix(-1 0 0 -1 2787.1719 488.25)" gradientUnits="userSpaceOnUse">
			<stop  offset="0.0197" style="stop-color:#DCE238"/>
			<stop  offset="0.735" style="stop-color:#FCF8CC"/>
			<stop  offset="1" style="stop-color:#FFFFFF;stop-opacity:0"/>
		</radialGradient>
		<polygon fill="url(#SVGID_1_)" points="354.663,0 394.54,0 374.601,376.413 368.462,376.413 		"/>
		
			<radialGradient id="SVGID_2_" cx="2468.999" cy="297.3623" r="137.2786" gradientTransform="matrix(-1 0 0 -1 2787.1719 488.25)" gradientUnits="userSpaceOnUse">
			<stop  offset="0.0197" style="stop-color:#DCE238"/>
			<stop  offset="0.735" style="stop-color:#FCF8CC"/>
			<stop  offset="1" style="stop-color:#FFFFFF;stop-opacity:0"/>
		</radialGradient>
		<polygon fill="url(#SVGID_2_)" points="259.829,16.041 298.354,5.721 376.517,374.468 370.591,376.055 		"/>
		
			<radialGradient id="SVGID_3_" cx="2512.0474" cy="282.6041" r="140.1591" gradientTransform="matrix(-1 0 0 -1 2787.1719 488.25)" gradientUnits="userSpaceOnUse">
			<stop  offset="0.0197" style="stop-color:#DCE238"/>
			<stop  offset="0.735" style="stop-color:#FCF8CC"/>
			<stop  offset="1" style="stop-color:#FFFFFF;stop-opacity:0"/>
		</radialGradient>
		<polygon fill="url(#SVGID_3_)" points="172.387,56.073 206.926,36.135 377.862,372.091 372.548,375.157 		"/>
		
			<radialGradient id="SVGID_4_" cx="2548.7549" cy="256.7671" r="141.2222" gradientTransform="matrix(-1 0 0 -1 2787.1719 488.25)" gradientUnits="userSpaceOnUse">
			<stop  offset="0.0197" style="stop-color:#DCE238"/>
			<stop  offset="0.735" style="stop-color:#FCF8CC"/>
			<stop  offset="1" style="stop-color:#FFFFFF;stop-opacity:0"/>
		</radialGradient>
		<polygon fill="url(#SVGID_4_)" points="98.284,117.376 126.481,89.18 378.55,369.443 374.212,373.786 		"/>
		
			<radialGradient id="SVGID_5_" cx="2576.6226" cy="221.617" r="140.2229" gradientTransform="matrix(-1 0 0 -1 2787.1719 488.25)" gradientUnits="userSpaceOnUse">
			<stop  offset="0.0197" style="stop-color:#DCE238"/>
			<stop  offset="0.735" style="stop-color:#FCF8CC"/>
			<stop  offset="1" style="stop-color:#FFFFFF;stop-opacity:0"/>
		</radialGradient>
		<polygon fill="url(#SVGID_5_)" points="42.57,195.775 62.51,161.239 378.528,366.713 375.462,372.027 		"/>
		
			<radialGradient id="SVGID_6_" cx="2593.7476" cy="179.5479" r="137.3886" gradientTransform="matrix(-1 0 0 -1 2787.1719 488.25)" gradientUnits="userSpaceOnUse">
			<stop  offset="0.0197" style="stop-color:#DCE238"/>
			<stop  offset="0.735" style="stop-color:#FCF8CC"/>
			<stop  offset="1" style="stop-color:#FFFFFF;stop-opacity:0"/>
		</radialGradient>
		<polygon fill="url(#SVGID_6_)" points="9.053,285.918 19.37,247.396 377.796,364.079 376.212,370.008 		"/>
		
			<radialGradient id="SVGID_7_" cx="2598.9644" cy="126.5266" r="133.8275" gradientTransform="matrix(-1 0 0 -1 2787.1719 488.25)" gradientUnits="userSpaceOnUse">
			<stop  offset="0.0197" style="stop-color:#DCE238"/>
			<stop  offset="0.735" style="stop-color:#FCF8CC"/>
			<stop  offset="1" style="stop-color:#FFFFFF;stop-opacity:0"/>
		</radialGradient>
		<polygon fill="url(#SVGID_7_)" points="0,381.662 0,341.785 376.415,361.727 376.415,367.858 		"/>
		
			<radialGradient id="SVGID_8_" cx="2596.2827" cy="70.0999" r="137.2777" gradientTransform="matrix(-1 0 0 -1 2787.1719 488.25)" gradientUnits="userSpaceOnUse">
			<stop  offset="0.0197" style="stop-color:#DCE238"/>
			<stop  offset="0.735" style="stop-color:#FCF8CC"/>
			<stop  offset="1" style="stop-color:#FFFFFF;stop-opacity:0"/>
		</radialGradient>
		<polygon fill="url(#SVGID_8_)" points="16.035,476.491 5.723,437.974 374.47,359.809 376.056,365.736 		"/>
		
			<radialGradient id="SVGID_9_" cx="2581.5239" cy="27.0506" r="140.1576" gradientTransform="matrix(-1 0 0 -1 2787.1719 488.25)" gradientUnits="userSpaceOnUse">
			<stop  offset="0.0197" style="stop-color:#DCE238"/>
			<stop  offset="0.735" style="stop-color:#FCF8CC"/>
			<stop  offset="1" style="stop-color:#FFFFFF;stop-opacity:0"/>
		</radialGradient>
		<polygon fill="url(#SVGID_9_)" points="56.074,563.937 36.139,529.401 372.093,358.462 375.157,363.774 		"/>
		
			<radialGradient id="SVGID_10_" cx="2555.687" cy="-9.6604" r="141.2206" gradientTransform="matrix(-1 0 0 -1 2787.1719 488.25)" gradientUnits="userSpaceOnUse">
			<stop  offset="0.0197" style="stop-color:#DCE238"/>
			<stop  offset="0.735" style="stop-color:#FCF8CC"/>
			<stop  offset="1" style="stop-color:#FFFFFF;stop-opacity:0"/>
		</radialGradient>
		<polygon fill="url(#SVGID_10_)" points="117.378,638.042 89.184,609.841 369.446,357.779 373.786,362.114 		"/>
		
			<radialGradient id="SVGID_11_" cx="2520.5381" cy="-37.5244" r="140.2223" gradientTransform="matrix(-1 0 0 -1 2787.1719 488.25)" gradientUnits="userSpaceOnUse">
			<stop  offset="0.0197" style="stop-color:#DCE238"/>
			<stop  offset="0.735" style="stop-color:#FCF8CC"/>
			<stop  offset="1" style="stop-color:#FFFFFF;stop-opacity:0"/>
		</radialGradient>
		<polygon fill="url(#SVGID_11_)" points="195.772,693.751 161.237,673.813 366.714,357.798 372.03,360.867 		"/>
		
			<radialGradient id="SVGID_12_" cx="2478.4688" cy="-54.6506" r="137.3901" gradientTransform="matrix(-1 0 0 -1 2787.1719 488.25)" gradientUnits="userSpaceOnUse">
			<stop  offset="0.0197" style="stop-color:#DCE238"/>
			<stop  offset="0.735" style="stop-color:#FCF8CC"/>
			<stop  offset="1" style="stop-color:#FFFFFF;stop-opacity:0"/>
		</radialGradient>
		<polygon fill="url(#SVGID_12_)" points="285.915,727.274 247.397,716.954 364.081,358.527 370.009,360.113 		"/>
		
			<radialGradient id="SVGID_13_" cx="2425.4463" cy="-59.8665" r="133.8283" gradientTransform="matrix(-1 0 0 -1 2787.1719 488.25)" gradientUnits="userSpaceOnUse">
			<stop  offset="0.0197" style="stop-color:#DCE238"/>
			<stop  offset="0.735" style="stop-color:#FCF8CC"/>
			<stop  offset="1" style="stop-color:#FFFFFF;stop-opacity:0"/>
		</radialGradient>
		<polygon fill="url(#SVGID_13_)" points="381.663,736.325 341.788,736.321 361.728,359.908 367.86,359.908 		"/>
		
			<radialGradient id="SVGID_14_" cx="2369.0205" cy="-57.1852" r="137.2783" gradientTransform="matrix(-1 0 0 -1 2787.1719 488.25)" gradientUnits="userSpaceOnUse">
			<stop  offset="0.0197" style="stop-color:#DCE238"/>
			<stop  offset="0.735" style="stop-color:#FCF8CC"/>
			<stop  offset="1" style="stop-color:#FFFFFF;stop-opacity:0"/>
		</radialGradient>
		<polygon fill="url(#SVGID_14_)" points="476.493,720.282 437.976,730.602 359.81,361.854 365.739,360.268 		"/>
		
			<radialGradient id="SVGID_15_" cx="2325.9717" cy="-42.426" r="140.1588" gradientTransform="matrix(-1 0 0 -1 2787.1719 488.25)" gradientUnits="userSpaceOnUse">
			<stop  offset="0.0197" style="stop-color:#DCE238"/>
			<stop  offset="0.735" style="stop-color:#FCF8CC"/>
			<stop  offset="1" style="stop-color:#FFFFFF;stop-opacity:0"/>
		</radialGradient>
		<polygon fill="url(#SVGID_15_)" points="563.938,680.247 529.405,700.187 358.462,364.233 363.774,361.165 		"/>
		
			<radialGradient id="SVGID_16_" cx="2289.2617" cy="-16.5891" r="141.2203" gradientTransform="matrix(-1 0 0 -1 2787.1719 488.25)" gradientUnits="userSpaceOnUse">
			<stop  offset="0.0197" style="stop-color:#DCE238"/>
			<stop  offset="0.735" style="stop-color:#FCF8CC"/>
			<stop  offset="1" style="stop-color:#FFFFFF;stop-opacity:0"/>
		</radialGradient>
		<polygon fill="url(#SVGID_16_)" points="638.042,618.942 609.841,647.14 357.778,366.88 362.116,362.539 		"/>
		
			<radialGradient id="SVGID_17_" cx="2261.3965" cy="18.5616" r="140.2209" gradientTransform="matrix(-1 0 0 -1 2787.1719 488.25)" gradientUnits="userSpaceOnUse">
			<stop  offset="0.0197" style="stop-color:#DCE238"/>
			<stop  offset="0.735" style="stop-color:#FCF8CC"/>
			<stop  offset="1" style="stop-color:#FFFFFF;stop-opacity:0"/>
		</radialGradient>
		<polygon fill="url(#SVGID_17_)" points="693.751,540.55 673.813,575.083 357.8,369.611 360.862,364.294 		"/>
		
			<radialGradient id="SVGID_18_" cx="2244.2715" cy="60.6284" r="137.391" gradientTransform="matrix(-1 0 0 -1 2787.1719 488.25)" gradientUnits="userSpaceOnUse">
			<stop  offset="0.0197" style="stop-color:#DCE238"/>
			<stop  offset="0.735" style="stop-color:#FCF8CC"/>
			<stop  offset="1" style="stop-color:#FFFFFF;stop-opacity:0"/>
		</radialGradient>
		<polygon fill="url(#SVGID_18_)" points="727.276,450.405 716.952,488.925 358.524,372.245 360.118,366.318 		"/>
		
			<radialGradient id="SVGID_19_" cx="2239.0547" cy="113.6518" r="133.8266" gradientTransform="matrix(-1 0 0 -1 2787.1719 488.25)" gradientUnits="userSpaceOnUse">
			<stop  offset="0.0197" style="stop-color:#DCE238"/>
			<stop  offset="0.735" style="stop-color:#FCF8CC"/>
			<stop  offset="1" style="stop-color:#FFFFFF;stop-opacity:0"/>
		</radialGradient>
		<polygon fill="url(#SVGID_19_)" points="736.323,354.658 736.323,394.538 359.911,374.595 359.911,368.464 		"/>
		
			<radialGradient id="SVGID_20_" cx="2241.7344" cy="170.0757" r="137.278" gradientTransform="matrix(-1 0 0 -1 2787.1719 488.25)" gradientUnits="userSpaceOnUse">
			<stop  offset="0.0197" style="stop-color:#DCE238"/>
			<stop  offset="0.735" style="stop-color:#FCF8CC"/>
			<stop  offset="1" style="stop-color:#FFFFFF;stop-opacity:0"/>
		</radialGradient>
		<polygon fill="url(#SVGID_20_)" points="720.286,259.833 730.604,298.353 361.858,376.516 360.271,370.59 		"/>
		
			<radialGradient id="SVGID_21_" cx="2256.4951" cy="213.1252" r="140.1581" gradientTransform="matrix(-1 0 0 -1 2787.1719 488.25)" gradientUnits="userSpaceOnUse">
			<stop  offset="0.0197" style="stop-color:#DCE238"/>
			<stop  offset="0.735" style="stop-color:#FCF8CC"/>
			<stop  offset="1" style="stop-color:#FFFFFF;stop-opacity:0"/>
		</radialGradient>
		<polygon fill="url(#SVGID_21_)" points="680.251,172.387 700.187,206.924 364.233,377.862 361.167,372.548 		"/>
		
			<radialGradient id="SVGID_22_" cx="2282.3311" cy="249.8328" r="141.2199" gradientTransform="matrix(-1 0 0 -1 2787.1719 488.25)" gradientUnits="userSpaceOnUse">
			<stop  offset="0.0197" style="stop-color:#DCE238"/>
			<stop  offset="0.735" style="stop-color:#FCF8CC"/>
			<stop  offset="1" style="stop-color:#FFFFFF;stop-opacity:0"/>
		</radialGradient>
		<polygon fill="url(#SVGID_22_)" points="618.942,98.287 647.142,126.479 366.88,378.548 362.54,374.208 		"/>
		
			<radialGradient id="SVGID_23_" cx="2317.4795" cy="277.7026" r="140.221" gradientTransform="matrix(-1 0 0 -1 2787.1719 488.25)" gradientUnits="userSpaceOnUse">
			<stop  offset="0.0197" style="stop-color:#DCE238"/>
			<stop  offset="0.735" style="stop-color:#FCF8CC"/>
			<stop  offset="1" style="stop-color:#FFFFFF;stop-opacity:0"/>
		</radialGradient>
		<polygon fill="url(#SVGID_23_)" points="540.55,42.57 575.085,62.51 369.612,378.524 364.3,375.456 		"/>
		
			<radialGradient id="SVGID_24_" cx="2359.5488" cy="294.8257" r="137.3908" gradientTransform="matrix(-1 0 0 -1 2787.1719 488.25)" gradientUnits="userSpaceOnUse">
			<stop  offset="0.0197" style="stop-color:#DCE238"/>
			<stop  offset="0.735" style="stop-color:#FCF8CC"/>
			<stop  offset="1" style="stop-color:#FFFFFF;stop-opacity:0"/>
		</radialGradient>
		<polygon fill="url(#SVGID_24_)" points="450.407,9.049 488.927,19.374 372.245,377.8 366.319,376.21 		"/>
	</g>
	<g>
		<linearGradient id="SVGID_25_" gradientUnits="userSpaceOnUse" x1="247.8115" y1="133.8408" x2="275.7881" y2="133.8408">
			<stop  offset="0" style="stop-color:#EDE94A"/>
			<stop  offset="0.1414" style="stop-color:#EEDF45"/>
			<stop  offset="0.4003" style="stop-color:#F0CA3A"/>
			<stop  offset="0.7448" style="stop-color:#F2A629"/>
			<stop  offset="1" style="stop-color:#F6891F"/>
		</linearGradient>
		<polygon fill="url(#SVGID_25_)" stroke="#F1F2F2" stroke-miterlimit="10" points="261.8,120.537 266.122,129.296 275.788,130.7 
			268.794,137.518 270.445,147.145 261.8,142.6 253.154,147.145 254.806,137.518 247.811,130.7 257.478,129.296 		"/>
		<linearGradient id="SVGID_26_" gradientUnits="userSpaceOnUse" x1="328.1455" y1="168.6782" x2="352.164" y2="168.6782">
			<stop  offset="0" style="stop-color:#EDE94A"/>
			<stop  offset="0.1414" style="stop-color:#EEDF45"/>
			<stop  offset="0.4003" style="stop-color:#F0CA3A"/>
			<stop  offset="0.7448" style="stop-color:#F2A629"/>
			<stop  offset="1" style="stop-color:#F6891F"/>
		</linearGradient>
		<polygon fill="url(#SVGID_26_)" stroke="#F1F2F2" stroke-miterlimit="10" points="340.155,157.257 343.865,164.776 
			352.164,165.982 346.159,171.835 347.576,180.1 340.155,176.197 332.733,180.1 334.15,171.835 328.146,165.982 336.444,164.776 		
			"/>
		<linearGradient id="SVGID_27_" gradientUnits="userSpaceOnUse" x1="421.3242" y1="166.4736" x2="434.7246" y2="166.4736">
			<stop  offset="0" style="stop-color:#EDE94A"/>
			<stop  offset="0.1414" style="stop-color:#EEDF45"/>
			<stop  offset="0.4003" style="stop-color:#F0CA3A"/>
			<stop  offset="0.7448" style="stop-color:#F2A629"/>
			<stop  offset="1" style="stop-color:#F6891F"/>
		</linearGradient>
		<polygon fill="url(#SVGID_27_)" stroke="#F1F2F2" stroke-miterlimit="10" points="428.024,160.102 430.095,164.297 
			434.725,164.97 431.374,168.235 432.165,172.846 428.024,170.669 423.884,172.846 424.675,168.235 421.324,164.97 
			425.954,164.297 		"/>
		<linearGradient id="SVGID_28_" gradientUnits="userSpaceOnUse" x1="499.9248" y1="149.3696" x2="525.6045" y2="149.3696">
			<stop  offset="0" style="stop-color:#EDE94A"/>
			<stop  offset="0.1414" style="stop-color:#EEDF45"/>
			<stop  offset="0.4003" style="stop-color:#F0CA3A"/>
			<stop  offset="0.7448" style="stop-color:#F2A629"/>
			<stop  offset="1" style="stop-color:#F6891F"/>
		</linearGradient>
		<polygon fill="url(#SVGID_28_)" stroke="#F1F2F2" stroke-miterlimit="10" points="512.765,137.158 516.731,145.197 
			525.604,146.487 519.184,152.745 520.699,161.581 512.765,157.409 504.829,161.581 506.345,152.745 499.925,146.487 
			508.797,145.197 		"/>
		<linearGradient id="SVGID_29_" gradientUnits="userSpaceOnUse" x1="403.7734" y1="100.1626" x2="446.6191" y2="100.1626">
			<stop  offset="0" style="stop-color:#EDE94A"/>
			<stop  offset="0.1414" style="stop-color:#EEDF45"/>
			<stop  offset="0.4003" style="stop-color:#F0CA3A"/>
			<stop  offset="0.7448" style="stop-color:#F2A629"/>
			<stop  offset="1" style="stop-color:#F6891F"/>
		</linearGradient>
		<polygon fill="url(#SVGID_29_)" stroke="#F1F2F2" stroke-miterlimit="10" points="425.196,79.788 431.816,93.202 446.619,95.353 
			435.908,105.794 438.436,120.537 425.196,113.576 411.956,120.537 414.484,105.794 403.773,95.353 418.576,93.202 		"/>
		<linearGradient id="SVGID_30_" gradientUnits="userSpaceOnUse" x1="554.0615" y1="252.3725" x2="581.9687" y2="252.3725">
			<stop  offset="0" style="stop-color:#EDE94A"/>
			<stop  offset="0.1414" style="stop-color:#EEDF45"/>
			<stop  offset="0.4003" style="stop-color:#F0CA3A"/>
			<stop  offset="0.7448" style="stop-color:#F2A629"/>
			<stop  offset="1" style="stop-color:#F6891F"/>
		</linearGradient>
		<polygon fill="url(#SVGID_30_)" stroke="#F1F2F2" stroke-miterlimit="10" points="568.015,239.102 572.327,247.839 
			581.969,249.24 574.991,256.041 576.639,265.643 568.015,261.109 559.392,265.643 561.038,256.041 554.062,249.24 
			563.703,247.839 		"/>
		<linearGradient id="SVGID_31_" gradientUnits="userSpaceOnUse" x1="637.8008" y1="219.147" x2="652.5371" y2="219.147">
			<stop  offset="0" style="stop-color:#EDE94A"/>
			<stop  offset="0.1414" style="stop-color:#EEDF45"/>
			<stop  offset="0.4003" style="stop-color:#F0CA3A"/>
			<stop  offset="0.7448" style="stop-color:#F2A629"/>
			<stop  offset="1" style="stop-color:#F6891F"/>
		</linearGradient>
		<polygon fill="url(#SVGID_31_)" stroke="#F1F2F2" stroke-miterlimit="10" points="645.169,212.14 647.445,216.753 
			652.537,217.493 648.852,221.084 649.723,226.154 645.169,223.76 640.615,226.154 641.485,221.084 637.801,217.493 
			642.893,216.753 		"/>
		<linearGradient id="SVGID_32_" gradientUnits="userSpaceOnUse" x1="184.2305" y1="211.6582" x2="221.7744" y2="211.6582">
			<stop  offset="0" style="stop-color:#EDE94A"/>
			<stop  offset="0.1414" style="stop-color:#EEDF45"/>
			<stop  offset="0.4003" style="stop-color:#F0CA3A"/>
			<stop  offset="0.7448" style="stop-color:#F2A629"/>
			<stop  offset="1" style="stop-color:#F6891F"/>
		</linearGradient>
		<polygon fill="url(#SVGID_32_)" stroke="#F1F2F2" stroke-miterlimit="10" points="203.002,193.805 208.804,205.559 
			221.774,207.443 212.389,216.593 214.604,229.512 203.002,223.412 191.4,229.512 193.616,216.593 184.23,207.443 197.201,205.559 
					"/>
		<linearGradient id="SVGID_33_" gradientUnits="userSpaceOnUse" x1="127.0879" y1="332.0341" x2="160.0117" y2="332.0341">
			<stop  offset="0" style="stop-color:#EDE94A"/>
			<stop  offset="0.1414" style="stop-color:#EEDF45"/>
			<stop  offset="0.4003" style="stop-color:#F0CA3A"/>
			<stop  offset="0.7448" style="stop-color:#F2A629"/>
			<stop  offset="1" style="stop-color:#F6891F"/>
		</linearGradient>
		<polygon fill="url(#SVGID_33_)" stroke="#F1F2F2" stroke-miterlimit="10" points="143.55,316.378 148.637,326.686 
			160.012,328.339 151.78,336.362 153.724,347.69 143.55,342.342 133.376,347.69 135.319,336.362 127.088,328.339 138.463,326.686 
					"/>
		<linearGradient id="SVGID_34_" gradientUnits="userSpaceOnUse" x1="178.373" y1="548.2651" x2="222.0527" y2="548.2651">
			<stop  offset="0" style="stop-color:#EDE94A"/>
			<stop  offset="0.1414" style="stop-color:#EEDF45"/>
			<stop  offset="0.4003" style="stop-color:#F0CA3A"/>
			<stop  offset="0.7448" style="stop-color:#F2A629"/>
			<stop  offset="1" style="stop-color:#F6891F"/>
		</linearGradient>
		<polygon fill="url(#SVGID_34_)" stroke="#F1F2F2" stroke-miterlimit="10" points="200.213,527.494 206.962,541.169 
			222.053,543.362 211.133,554.006 213.71,569.036 200.213,561.939 186.715,569.036 189.293,554.006 178.373,543.361 
			193.464,541.169 		"/>
		<linearGradient id="SVGID_35_" gradientUnits="userSpaceOnUse" x1="253.6611" y1="590.1005" x2="269.9385" y2="590.1005">
			<stop  offset="0" style="stop-color:#EDE94A"/>
			<stop  offset="0.1414" style="stop-color:#EEDF45"/>
			<stop  offset="0.4003" style="stop-color:#F0CA3A"/>
			<stop  offset="0.7448" style="stop-color:#F2A629"/>
			<stop  offset="1" style="stop-color:#F6891F"/>
		</linearGradient>
		<polygon fill="url(#SVGID_35_)" stroke="#F1F2F2" stroke-miterlimit="10" points="261.8,582.36 264.314,587.456 269.939,588.273 
			265.869,592.24 266.829,597.841 261.8,595.196 256.77,597.841 257.73,592.24 253.661,588.273 259.285,587.456 		"/>
		<linearGradient id="SVGID_36_" gradientUnits="userSpaceOnUse" x1="321.833" y1="619.7519" x2="345.0166" y2="619.7519">
			<stop  offset="0" style="stop-color:#EDE94A"/>
			<stop  offset="0.1414" style="stop-color:#EEDF45"/>
			<stop  offset="0.4003" style="stop-color:#F0CA3A"/>
			<stop  offset="0.7448" style="stop-color:#F2A629"/>
			<stop  offset="1" style="stop-color:#F6891F"/>
		</linearGradient>
		<polygon fill="url(#SVGID_36_)" stroke="#F1F2F2" stroke-miterlimit="10" points="333.425,608.727 337.007,615.985 
			345.017,617.149 339.221,622.799 340.589,630.776 333.425,627.01 326.261,630.776 327.629,622.799 321.833,617.149 
			329.843,615.985 		"/>
		<linearGradient id="SVGID_37_" gradientUnits="userSpaceOnUse" x1="433.8115" y1="619.5146" x2="438.5381" y2="619.5146">
			<stop  offset="0" style="stop-color:#EDE94A"/>
			<stop  offset="0.1414" style="stop-color:#EEDF45"/>
			<stop  offset="0.4003" style="stop-color:#F0CA3A"/>
			<stop  offset="0.7448" style="stop-color:#F2A629"/>
			<stop  offset="1" style="stop-color:#F6891F"/>
		</linearGradient>
		<polygon fill="url(#SVGID_37_)" stroke="#F1F2F2" stroke-miterlimit="10" points="436.175,617.267 436.905,618.746 
			438.538,618.984 437.356,620.136 437.636,621.763 436.175,620.994 434.714,621.763 434.993,620.136 433.811,618.984 
			435.444,618.746 		"/>
		<linearGradient id="SVGID_38_" gradientUnits="userSpaceOnUse" x1="554.1728" y1="585.2665" x2="577.2305" y2="585.2665">
			<stop  offset="0" style="stop-color:#EDE94A"/>
			<stop  offset="0.1414" style="stop-color:#EEDF45"/>
			<stop  offset="0.4003" style="stop-color:#F0CA3A"/>
			<stop  offset="0.7448" style="stop-color:#F2A629"/>
			<stop  offset="1" style="stop-color:#F6891F"/>
		</linearGradient>
		<polygon fill="url(#SVGID_38_)" stroke="#F1F2F2" stroke-miterlimit="10" points="565.701,574.303 569.264,581.521 
			577.231,582.678 571.467,588.298 572.827,596.23 565.701,592.485 558.575,596.23 559.937,588.298 554.173,582.678 562.14,581.521 
					"/>
		<linearGradient id="SVGID_39_" gradientUnits="userSpaceOnUse" x1="674.2637" y1="478.3672" x2="702.5234" y2="478.3672">
			<stop  offset="0" style="stop-color:#EDE94A"/>
			<stop  offset="0.1414" style="stop-color:#EEDF45"/>
			<stop  offset="0.4003" style="stop-color:#F0CA3A"/>
			<stop  offset="0.7448" style="stop-color:#F2A629"/>
			<stop  offset="1" style="stop-color:#F6891F"/>
		</linearGradient>
		<polygon fill="url(#SVGID_39_)" stroke="#F1F2F2" stroke-miterlimit="10" points="688.393,464.929 692.76,473.776 
			702.523,475.195 695.459,482.082 697.127,491.806 688.393,487.215 679.66,491.806 681.328,482.082 674.264,475.195 
			684.027,473.776 		"/>
		<linearGradient id="SVGID_40_" gradientUnits="userSpaceOnUse" x1="707.9531" y1="382.7319" x2="737.707" y2="382.7319">
			<stop  offset="0" style="stop-color:#EDE94A"/>
			<stop  offset="0.1414" style="stop-color:#EEDF45"/>
			<stop  offset="0.4003" style="stop-color:#F0CA3A"/>
			<stop  offset="0.7448" style="stop-color:#F2A629"/>
			<stop  offset="1" style="stop-color:#F6891F"/>
		</linearGradient>
		<polygon fill="url(#SVGID_40_)" stroke="#F1F2F2" stroke-miterlimit="10" points="722.83,368.583 727.428,377.898 
			737.707,379.392 730.268,386.643 732.024,396.881 722.83,392.047 713.636,396.881 715.392,386.643 707.953,379.392 
			718.232,377.898 		"/>
		<linearGradient id="SVGID_41_" gradientUnits="userSpaceOnUse" x1="688.3935" y1="299.0405" x2="700.9775" y2="299.0405">
			<stop  offset="0" style="stop-color:#EDE94A"/>
			<stop  offset="0.1414" style="stop-color:#EEDF45"/>
			<stop  offset="0.4003" style="stop-color:#F0CA3A"/>
			<stop  offset="0.7448" style="stop-color:#F2A629"/>
			<stop  offset="1" style="stop-color:#F6891F"/>
		</linearGradient>
		<polygon fill="url(#SVGID_41_)" stroke="#F1F2F2" stroke-miterlimit="10" points="694.685,293.057 696.63,296.996 
			700.977,297.628 697.832,300.694 698.574,305.024 694.685,302.98 690.797,305.024 691.539,300.694 688.393,297.628 
			692.741,296.996 		"/>
		<linearGradient id="SVGID_42_" gradientUnits="userSpaceOnUse" x1="639.3164" y1="543.3979" x2="665.7578" y2="543.3979">
			<stop  offset="0" style="stop-color:#EDE94A"/>
			<stop  offset="0.1414" style="stop-color:#EEDF45"/>
			<stop  offset="0.4003" style="stop-color:#F0CA3A"/>
			<stop  offset="0.7448" style="stop-color:#F2A629"/>
			<stop  offset="1" style="stop-color:#F6891F"/>
		</linearGradient>
		<polygon fill="url(#SVGID_42_)" stroke="#F1F2F2" stroke-miterlimit="10" points="652.537,530.824 656.623,539.102 
			665.758,540.43 659.147,546.873 660.708,555.972 652.537,551.676 644.366,555.972 645.927,546.873 639.316,540.43 
			648.451,539.102 		"/>
		<linearGradient id="SVGID_43_" gradientUnits="userSpaceOnUse" x1="475.2734" y1="638.8281" x2="496.9668" y2="638.8281">
			<stop  offset="0" style="stop-color:#EDE94A"/>
			<stop  offset="0.1414" style="stop-color:#EEDF45"/>
			<stop  offset="0.4003" style="stop-color:#F0CA3A"/>
			<stop  offset="0.7448" style="stop-color:#F2A629"/>
			<stop  offset="1" style="stop-color:#F6891F"/>
		</linearGradient>
		<polygon fill="url(#SVGID_43_)" stroke="#F1F2F2" stroke-miterlimit="10" points="486.12,628.513 489.472,635.305 
			496.967,636.393 491.543,641.68 492.823,649.143 486.12,645.62 479.417,649.143 480.697,641.68 475.273,636.393 482.768,635.305 
					"/>
		<linearGradient id="SVGID_44_" gradientUnits="userSpaceOnUse" x1="94.7461" y1="458.4619" x2="141.7812" y2="458.4619">
			<stop  offset="0" style="stop-color:#EDE94A"/>
			<stop  offset="0.1414" style="stop-color:#EEDF45"/>
			<stop  offset="0.4003" style="stop-color:#F0CA3A"/>
			<stop  offset="0.7448" style="stop-color:#F2A629"/>
			<stop  offset="1" style="stop-color:#F6891F"/>
		</linearGradient>
		<polygon fill="url(#SVGID_44_)" stroke="#F1F2F2" stroke-miterlimit="10" points="118.264,436.096 125.531,450.82 
			141.781,453.182 130.022,464.643 132.798,480.828 118.264,473.188 103.729,480.828 106.505,464.643 94.746,453.182 
			110.996,450.82 		"/>
	</g>
</g>
</svg>
